<svg width="44" height="37" viewBox="0 0 44 37" fill="none" xmlns="http://www.w3.org/2000/svg">
<path d="M43.1406 18.8633C43.6152 18.8633 44 18.4785 44 18.0039C44 17.5293 43.6152 17.1445 43.1406 17.1445C42.666 17.1445 42.2812 17.5293 42.2812 18.0039C42.2812 18.4785 42.666 18.8633 43.1406 18.8633Z" fill="#3B9670"/>
<path d="M33.3438 11H27.1562C26.6817 11 26.2969 11.3847 26.2969 11.8594V15.2969C26.2969 15.7715 26.6817 16.1562 27.1562 16.1562H33.3438C33.8183 16.1562 34.2031 15.7715 34.2031 15.2969V11.8594C34.2031 11.3847 33.8183 11 33.3438 11ZM32.4844 14.4375H28.0156V12.7188H32.4844V14.4375Z" fill="#3B9670"/>
<path d="M33.3438 20.9688H31.625C31.1505 20.9688 30.7656 21.3535 30.7656 21.8281C30.7656 22.3028 31.1505 22.6875 31.625 22.6875H33.3438C33.8183 22.6875 34.2031 22.3028 34.2031 21.8281C34.2031 21.3535 33.8183 20.9688 33.3438 20.9688Z" fill="#3B9670"/>
<path d="M44 21.8711C44 21.3976 43.6141 21.0117 43.1406 21.0117C42.6671 21.0117 42.2812 21.3976 42.2812 21.8711V28.0033L37.6406 32.644V8.42188C37.6406 7.94724 37.2558 7.5625 36.7812 7.5625H23.7188C23.2442 7.5625 22.8594 7.94724 22.8594 8.42188V24.9219H8.59375V24.0625C8.59375 22.6409 7.4372 21.4844 6.01562 21.4844H2.57812C2.27683 21.4844 1.98773 21.5368 1.71875 21.6322V8.09041L8.09041 1.71875H35.9097L42.2812 8.09041V14.1367C42.2812 14.6102 42.6671 14.9961 43.1406 14.9961C43.615 14.9961 44 14.6102 44 14.1367V0.859375C44 0.633359 43.908 0.411641 43.7481 0.251797C43.5884 0.0919532 43.3666 0 43.1406 0H0.859375C0.633359 0 0.411641 0.0919532 0.251797 0.251797C0.0918672 0.411641 0 0.633359 0 0.859375V35.2344C0 35.2626 0.00146094 35.2908 0.00429688 35.3189C0.0440859 35.726 0.367812 36.0498 0.774984 36.0895C0.802914 36.0923 0.831102 36.0938 0.859375 36.0938H43.1406C43.3666 36.0938 43.5884 36.0018 43.7481 35.842C43.908 35.6821 44 35.4604 44 35.2344V21.8711ZM22.8594 28.3594H1.71875V26.6406H22.8594V28.3594ZM19.4219 30.0781V34.375H5.15625V30.0781H19.4219ZM2.57812 23.2031H6.01562C6.48948 23.2031 6.875 23.5886 6.875 24.0625V24.9219H1.71875V24.0625C1.71875 23.5886 2.10427 23.2031 2.57812 23.2031ZM42.2812 5.65959L38.3404 1.71875H42.2812V5.65959ZM5.65959 1.71875L1.71875 5.65959V1.71875H5.65959ZM1.71875 34.375V30.0781H3.4375V34.375H1.71875ZM21.1406 30.0781H22.8594V34.375H21.1406V30.0781ZM24.5781 9.28125H35.9219V34.3627L35.9096 34.375H24.5781V9.28125ZM38.3404 34.375L42.2812 30.4342V34.375H38.3404Z" fill="#3B9670"/>
</svg>
