<svg width="49" height="53" viewBox="0 0 49 53" fill="none" xmlns="http://www.w3.org/2000/svg">
<path d="M30.9189 38.3384C30.3405 38.3381 29.7644 38.4118 29.2047 38.5579V20.3388C29.2047 20.1115 29.1144 19.8935 28.9537 19.7328C28.7929 19.572 28.5749 19.4817 28.3476 19.4817C28.1203 19.4817 27.9022 19.572 27.7415 19.7328C27.5808 19.8935 27.4905 20.1115 27.4905 20.3388V39.781C27.4909 39.9255 27.5278 40.0676 27.5978 40.194C27.6679 40.3204 27.7687 40.427 27.891 40.504C28.0133 40.5809 28.1531 40.6257 28.2974 40.6342C28.4416 40.6427 28.5857 40.6145 28.7161 40.5524C29.4038 40.2231 30.1565 40.0523 30.9189 40.0527C31.9361 40.0527 32.9304 40.3543 33.7761 40.9194C34.6218 41.4845 35.281 42.2877 35.6702 43.2274C36.0595 44.1671 36.1613 45.2011 35.9629 46.1987C35.7644 47.1963 35.2746 48.1127 34.5554 48.8319C33.8362 49.5511 32.9198 50.0409 31.9222 50.2394C30.9247 50.4378 29.8906 50.336 28.9509 49.9467C28.0112 49.5575 27.208 48.8983 26.6429 48.0526C26.0778 47.2069 25.7762 46.2126 25.7762 45.1954V22.0531C25.7762 21.8258 25.6859 21.6078 25.5252 21.447C25.3644 21.2863 25.1464 21.196 24.9191 21.196C24.6918 21.196 24.4737 21.2863 24.313 21.447C24.1523 21.6078 24.062 21.8258 24.062 22.0531V33.1957H22.3477V20.8685L28.7307 17.6818C28.8738 17.6102 28.9941 17.5001 29.0779 17.3637C29.1616 17.2274 29.2056 17.0704 29.2047 16.9104V6.62487C29.2047 5.0336 28.5726 3.50751 27.4474 2.38232C26.3222 1.25713 24.7961 0.625 23.2048 0.625C21.6136 0.625 20.0875 1.25713 18.9623 2.38232C17.8371 3.50751 17.205 5.0336 17.205 6.62487V13.4819C17.205 13.7092 17.2953 13.9272 17.456 14.0879C17.6168 14.2487 17.8348 14.339 18.0621 14.339C18.2894 14.339 18.5074 14.2487 18.6682 14.0879C18.8289 13.9272 18.9192 13.7092 18.9192 13.4819V6.62487C18.9205 5.63728 19.2621 4.68033 19.8867 3.91528C20.5112 3.15024 21.3804 2.6239 22.3477 2.42496V13.0233L17.5864 16.1947C17.4687 16.2732 17.3722 16.3797 17.3057 16.5045C17.2391 16.6294 17.2045 16.7688 17.205 16.9104V36.6242C17.205 36.8515 17.2953 37.0695 17.456 37.2303C17.6168 37.391 17.8348 37.4813 18.0621 37.4813C18.2894 37.4813 18.5074 37.391 18.6682 37.2303C18.8289 37.0695 18.9192 36.8515 18.9192 36.6242V17.3689L23.6805 14.1976C23.7983 14.119 23.8947 14.0126 23.9613 13.8877C24.0278 13.7628 24.0624 13.6234 24.062 13.4819V2.42496C25.0294 2.62375 25.8986 3.15005 26.5232 3.91513C27.1477 4.6802 27.4894 5.63724 27.4905 6.62487V16.3806L21.1075 19.5717C20.965 19.6429 20.8451 19.7524 20.7614 19.8879C20.6777 20.0234 20.6334 20.1796 20.6335 20.3388V45.1954C20.6335 46.2126 20.3318 47.2069 19.7668 48.0526C19.2017 48.8983 18.3985 49.5575 17.4588 49.9467C16.5191 50.336 15.485 50.4378 14.4874 50.2394C13.4898 50.0409 12.5735 49.5511 11.8543 48.8319C11.135 48.1127 10.6452 47.1963 10.4468 46.1987C10.2484 45.2011 10.3502 44.1671 10.7394 43.2274C11.1287 42.2877 11.7878 41.4845 12.6336 40.9194C13.4793 40.3543 14.4736 40.0527 15.4907 40.0527C16.2533 40.0528 17.006 40.2242 17.6935 40.5541C17.7958 40.6123 17.9091 40.6488 18.0261 40.6613C18.1432 40.6739 18.2615 40.6622 18.3739 40.6269C18.4862 40.5917 18.59 40.5337 18.679 40.4566C18.7679 40.3794 18.84 40.2848 18.8907 40.1786C18.9415 40.0724 18.9698 39.9568 18.9739 39.8392C18.9781 39.7216 18.9579 39.6043 18.9147 39.4948C18.8716 39.3853 18.8063 39.2858 18.723 39.2026C18.6398 39.1195 18.5402 39.0543 18.4307 39.0113C17.5135 38.5693 16.5088 38.3394 15.4907 38.3384C14.1345 38.3384 12.8088 38.7406 11.6812 39.4941C10.5536 40.2475 9.67468 41.3184 9.15569 42.5714C8.6367 43.8243 8.50091 45.203 8.76549 46.5332C9.03006 47.8633 9.68313 49.0851 10.6421 50.0441C11.6011 51.003 12.8229 51.6561 14.153 51.9207C15.4831 52.1853 16.8618 52.0495 18.1148 51.5305C19.3677 51.0115 20.4386 50.1326 21.1921 49.005C21.9456 47.8773 22.3477 46.5516 22.3477 45.1954V38.3384H24.062V45.1954C24.062 46.5516 24.4641 47.8773 25.2176 49.005C25.971 50.1326 27.0419 51.0115 28.2949 51.5305C29.5478 52.0495 30.9266 52.1853 32.2567 51.9207C33.5868 51.6561 34.8086 51.003 35.7676 50.0441C36.7265 49.0851 37.3796 47.8633 37.6442 46.5332C37.9088 45.203 37.773 43.8243 37.254 42.5714C36.735 41.3184 35.8561 40.2475 34.7285 39.4941C33.6009 38.7406 32.2751 38.3384 30.9189 38.3384ZM22.3477 36.6242V34.91H24.062V36.6242H22.3477Z" fill="#3B9670"/>
<path d="M34.3475 45.1953C34.3475 44.5172 34.1464 43.8544 33.7697 43.2906C33.3929 42.7268 32.8575 42.2873 32.231 42.0278C31.6045 41.7683 30.9152 41.7004 30.2501 41.8327C29.585 41.965 28.9741 42.2915 28.4947 42.771C28.0152 43.2505 27.6886 43.8614 27.5564 44.5265C27.4241 45.1915 27.492 45.8809 27.7515 46.5074C28.011 47.1338 28.4504 47.6693 29.0142 48.046C29.578 48.4228 30.2409 48.6238 30.919 48.6238C31.8283 48.6238 32.7003 48.2626 33.3433 47.6196C33.9862 46.9767 34.3475 46.1046 34.3475 45.1953ZM29.2047 45.1953C29.2047 44.8563 29.3053 44.5249 29.4936 44.243C29.682 43.961 29.9497 43.7413 30.263 43.6116C30.5762 43.4818 30.9209 43.4479 31.2534 43.514C31.5859 43.5802 31.8914 43.7434 32.1311 43.9832C32.3709 44.2229 32.5341 44.5284 32.6003 44.8609C32.6664 45.1934 32.6325 45.5381 32.5027 45.8514C32.373 46.1646 32.1533 46.4323 31.8714 46.6207C31.5895 46.809 31.258 46.9096 30.919 46.9096C30.4643 46.9096 30.0283 46.729 29.7068 46.4075C29.3853 46.086 29.2047 45.65 29.2047 45.1953Z" fill="#3B9670"/>
<path d="M23.2048 17.7675C23.6782 17.7675 24.062 17.3837 24.062 16.9103C24.062 16.437 23.6782 16.0532 23.2048 16.0532C22.7315 16.0532 22.3477 16.437 22.3477 16.9103C22.3477 17.3837 22.7315 17.7675 23.2048 17.7675Z" fill="#3B9670"/>
<path d="M15.4907 41.7668C14.8126 41.7668 14.1498 41.9679 13.586 42.3447C13.0221 42.7214 12.5827 43.2568 12.3232 43.8833C12.0637 44.5098 11.9958 45.1991 12.1281 45.8642C12.2604 46.5293 12.5869 47.1402 13.0664 47.6197C13.5459 48.0991 14.1568 48.4257 14.8219 48.558C15.4869 48.6903 16.1763 48.6224 16.8027 48.3629C17.4292 48.1034 17.9647 47.6639 18.3414 47.1001C18.7181 46.5363 18.9192 45.8734 18.9192 45.1953C18.9192 44.286 18.558 43.414 17.915 42.771C17.2721 42.1281 16.4 41.7668 15.4907 41.7668ZM15.4907 46.9096C15.1517 46.9096 14.8202 46.8091 14.5383 46.6207C14.2564 46.4323 14.0367 46.1646 13.907 45.8514C13.7772 45.5381 13.7433 45.1934 13.8094 44.8609C13.8756 44.5284 14.0388 44.2229 14.2786 43.9832C14.5183 43.7434 14.8238 43.5802 15.1563 43.514C15.4888 43.4479 15.8335 43.4818 16.1467 43.6116C16.46 43.7413 16.7277 43.9611 16.9161 44.243C17.1044 44.5249 17.205 44.8563 17.205 45.1953C17.205 45.65 17.0244 46.086 16.7029 46.4075C16.3814 46.729 15.9454 46.9096 15.4907 46.9096Z" fill="#3B9670"/>
<path d="M46.3472 21.3537V18.8895C46.6235 18.6629 46.8496 18.3813 47.0111 18.0626C47.1725 17.7438 47.2658 17.3949 47.2849 17.0381L48.0614 1.52498C48.0672 1.40887 48.0494 1.29279 48.0089 1.1838C47.9684 1.07481 47.9062 0.975191 47.826 0.891004C47.7459 0.806817 47.6494 0.739821 47.5425 0.694092C47.4356 0.648362 47.3205 0.624855 47.2043 0.625001C46.2041 0.625036 45.2144 0.828359 44.2952 1.22262C43.376 1.61688 42.5465 2.19386 41.8571 2.91852C41.1677 3.64317 40.6328 4.50038 40.2849 5.43809C39.9369 6.37581 39.7832 7.37446 39.833 8.3734L40.2616 17.0389C40.2814 17.396 40.3755 17.745 40.5379 18.0636C40.7002 18.3822 40.9272 18.6635 41.2044 18.8895V21.3537C40.7048 21.5303 40.2719 21.857 39.9651 22.2891C39.6582 22.7211 39.4924 23.2374 39.4902 23.7673V47.7668C39.4902 48.9034 39.9417 49.9935 40.7454 50.7972C41.5491 51.6009 42.6392 52.0524 43.7758 52.0524C44.9124 52.0524 46.0025 51.6009 46.8062 50.7972C47.6099 49.9935 48.0614 48.9034 48.0614 47.7668V37.4813C48.0614 37.254 47.9711 37.036 47.8104 36.8752C47.6496 36.7145 47.4316 36.6242 47.2043 36.6242C46.977 36.6242 46.7589 36.7145 46.5982 36.8752C46.4375 37.036 46.3472 37.254 46.3472 37.4813V47.7668C46.3472 48.4488 46.0763 49.1028 45.594 49.585C45.1118 50.0673 44.4578 50.3382 43.7758 50.3382C43.0938 50.3382 42.4398 50.0673 41.9576 49.585C41.4753 49.1028 41.2044 48.4488 41.2044 47.7668V34.91H47.2043C47.4316 34.91 47.6496 34.8196 47.8104 34.6589C47.9711 34.4982 48.0614 34.2801 48.0614 34.0528V23.7673C48.0592 23.2374 47.8933 22.7211 47.5865 22.2891C47.2796 21.857 46.8468 21.5303 46.3472 21.3537ZM41.2044 28.053H46.3472V29.7672H41.2044V28.053ZM43.0995 4.09978C43.9501 3.19808 45.0757 2.60393 46.3 2.41039L45.5757 16.9524C45.5679 17.1029 45.52 17.2486 45.437 17.3745C45.354 17.5003 45.2388 17.6017 45.1035 17.668C44.9626 17.7398 44.8444 17.8491 44.7618 17.9839C44.6792 18.1187 44.6355 18.2737 44.6355 18.4317V21.196H42.9187V18.4317C42.9187 18.2737 42.875 18.1187 42.7924 17.9839C42.7098 17.8491 42.5915 17.7398 42.4507 17.668C42.3154 17.6017 42.2004 17.5005 42.1174 17.3748C42.0343 17.2492 41.9864 17.1036 41.9784 16.9532L41.5498 8.28769C41.5081 7.52077 41.6241 6.75343 41.8906 6.03311C42.1572 5.31279 42.5686 4.65479 43.0995 4.09978ZM42.0615 22.9102H45.49C45.7174 22.9102 45.9354 23.0005 46.0961 23.1613C46.2569 23.322 46.3472 23.54 46.3472 23.7673V26.3387H41.2044V23.7673C41.2044 23.54 41.2947 23.322 41.4555 23.1613C41.6162 23.0005 41.8342 22.9102 42.0615 22.9102ZM41.2044 33.1957V31.4815H46.3472V33.1957H41.2044Z" fill="#3B9670"/>
<path d="M4.34812 17.8894V10.7658C4.34829 7.65102 5.19471 4.59481 6.79692 1.92371C6.90914 1.7291 6.94046 1.49822 6.88416 1.28074C6.82786 1.06327 6.68844 0.876589 6.49589 0.760879C6.30334 0.645169 6.07305 0.609677 5.8546 0.662042C5.63614 0.714406 5.44698 0.85044 5.32781 1.04087C3.56506 3.97845 2.63389 7.33991 2.63387 10.7658V17.8894C1.90005 18.0788 1.24969 18.5061 0.784454 19.1044C0.319221 19.7027 0.0653403 20.4383 0.0625 21.1961V48.6241C0.0625 49.5334 0.423715 50.4054 1.06668 51.0484C1.70965 51.6914 2.5817 52.0526 3.49099 52.0526C4.40029 52.0526 5.27234 51.6914 5.91531 51.0484C6.55827 50.4054 6.91949 49.5334 6.91949 48.6241V34.053C6.91949 33.8257 6.82919 33.6077 6.66844 33.4469C6.5077 33.2862 6.28969 33.1959 6.06237 33.1959C5.83504 33.1959 5.61703 33.2862 5.45629 33.4469C5.29555 33.6077 5.20524 33.8257 5.20524 34.053V48.6241C5.20524 49.0787 5.02463 49.5148 4.70315 49.8363C4.38167 50.1577 3.94564 50.3383 3.49099 50.3383C3.03635 50.3383 2.60032 50.1577 2.27884 49.8363C1.95736 49.5148 1.77675 49.0787 1.77675 48.6241V31.4816H6.06237C6.28969 31.4816 6.5077 31.3913 6.66844 31.2306C6.82919 31.0698 6.91949 30.8518 6.91949 30.6245V21.1961C6.91665 20.4383 6.66277 19.7027 6.19754 19.1044C5.7323 18.5061 5.08194 18.0788 4.34812 17.8894ZM1.77675 24.6246H5.20524V26.3389H1.77675V24.6246ZM3.49099 19.4819C3.94564 19.4819 4.38167 19.6625 4.70315 19.984C5.02463 20.3055 5.20524 20.7415 5.20524 21.1961V22.9104H1.77675V21.1961C1.77675 20.7415 1.95736 20.3055 2.27884 19.984C2.60032 19.6625 3.03635 19.4819 3.49099 19.4819ZM1.77675 29.7674V28.0531H5.20524V29.7674H1.77675Z" fill="#3B9670"/>
</svg>
