<svg width="44" height="48" viewBox="0 0 44 48" fill="none" xmlns="http://www.w3.org/2000/svg">
<path d="M37.9349 38.5999C37.5465 38.5999 37.2318 38.9146 37.2318 39.3031V47.2969C37.2318 47.6853 37.5465 48.0001 37.9349 48.0001C38.3233 48.0001 38.6381 47.6853 38.6381 47.2969V39.3031C38.6381 38.9147 38.3233 38.5999 37.9349 38.5999Z" fill="#3B9670"/>
<path d="M21.2308 38.5999C20.8424 38.5999 20.5277 38.9146 20.5277 39.3031V47.2969C20.5277 47.6853 20.8424 48.0001 21.2308 48.0001C21.6192 48.0001 21.9339 47.6853 21.9339 47.2969V39.3031C21.9339 38.9147 21.6192 38.5999 21.2308 38.5999Z" fill="#3B9670"/>
<path d="M32.7802 28.1459V27.271C35.5894 26.1748 37.723 23.6808 38.3401 20.644C38.4355 20.6517 38.5311 20.6569 38.627 20.6569C40.59 20.6569 42.1868 19.06 42.1868 17.0972C42.1868 15.954 41.6445 14.9357 40.8044 14.2839V10.3456C40.8141 10.3226 40.8245 10.3001 40.834 10.277C41.182 9.42834 41.3134 8.49675 41.2143 7.58278C41.183 7.29319 41.1416 7.00209 41.0912 6.71737C40.404 2.82506 37.0122 0 33.0262 0H32.8851C32.4967 0 32.182 0.314719 32.182 0.703125C32.182 1.09153 32.4967 1.40625 32.8851 1.40625H33.0262C36.3286 1.40625 39.138 3.74269 39.7064 6.96187C39.7513 7.21594 39.7882 7.47572 39.8162 7.73428C39.8902 8.41613 39.7921 9.111 39.5328 9.74344C38.8978 11.292 37.4057 12.2926 35.7318 12.2926H23.4349C21.7632 12.2926 20.2719 11.2937 19.6358 9.74775C19.6358 9.74775 19.6342 9.74391 19.6334 9.74175C19.3736 9.10875 19.2754 8.41378 19.3495 7.73184C19.3775 7.47422 19.4144 7.21519 19.4591 6.96178C20.0273 3.74269 22.8367 1.40625 26.1391 1.40625H29.7141C30.1025 1.40625 30.4172 1.09153 30.4172 0.703125C30.4172 0.314719 30.1025 0 29.7141 0H26.1391C22.1532 0 18.7613 2.82506 18.0741 6.71728C18.024 7.00116 17.9826 7.29141 17.9513 7.57978C17.8516 8.49591 17.9842 9.42975 18.3342 10.2803C18.3342 10.2803 18.3359 10.2843 18.3367 10.2865C18.3445 10.3055 18.3531 10.3239 18.3612 10.3428V14.2837C17.5206 14.9354 16.9781 15.9538 16.9781 17.0971C16.9781 19.0599 18.5754 20.6568 20.5387 20.6568C20.6279 20.6568 20.717 20.6523 20.8061 20.6456C21.1428 22.3913 21.9934 23.9949 23.2836 25.2759C24.1825 26.1684 25.2365 26.8465 26.3846 27.2856V28.146C23.6972 28.414 21.2684 29.5368 19.364 31.2322L13.7833 25.6513C13.6514 25.5195 13.4726 25.4454 13.286 25.4454H0.708984C0.320578 25.4454 0.00585938 25.7602 0.00585938 26.1486C0.00585938 26.537 0.320578 26.8517 0.708984 26.8517H12.995L18.3679 32.2247C16.3791 34.44 15.1725 37.3643 15.1725 40.5453V42.161C15.1725 42.5494 15.4873 42.8641 15.8757 42.8641C16.2641 42.8641 16.5788 42.5494 16.5788 42.161V40.5453C16.5788 37.7501 17.629 35.1785 19.3633 33.22L19.6369 33.4937C19.7743 33.6309 19.9542 33.6996 20.1342 33.6996C20.3141 33.6996 20.4941 33.6309 20.6314 33.4937C20.906 33.219 20.906 32.7739 20.6314 32.4993L20.3602 32.2281C22.0066 30.7842 24.0858 29.8183 26.3849 29.5595V30.4101C26.3849 32.173 27.8196 33.6073 29.583 33.6073C31.346 33.6073 32.7803 32.173 32.7803 30.4101V29.5593C38.3215 30.1827 42.5869 34.9076 42.5869 40.5453V47.2969C42.5869 47.6853 42.9016 48 43.29 48C43.6785 48 43.9932 47.6853 43.9932 47.2969V40.5452C43.993 34.1373 39.1033 28.7762 32.7802 28.1459ZM38.6269 19.2506C38.5886 19.2506 38.5502 19.2496 38.5121 19.2475C38.5184 19.109 38.522 18.9698 38.522 18.8297V14.9487C38.557 14.947 38.5918 14.9438 38.6269 14.9438C39.8144 14.9438 40.7805 15.9098 40.7805 17.0973C40.7805 18.2847 39.8144 19.2506 38.6269 19.2506ZM39.3979 12.3076V13.6226C39.1495 13.5675 38.8917 13.5376 38.6268 13.5376C38.5918 13.5376 38.5569 13.539 38.5219 13.54V13.3417C38.5219 13.2112 38.5181 13.0804 38.5124 12.9501C38.828 12.7661 39.1246 12.551 39.3979 12.3076ZM19.7675 12.3063C20.0406 12.5497 20.3371 12.7647 20.6525 12.9487C20.6468 13.0795 20.643 13.2107 20.643 13.3416V13.5399C20.6083 13.5389 20.5736 13.5375 20.5389 13.5375C20.274 13.5375 20.0161 13.5675 19.7675 13.6226V12.3063ZM20.5388 19.2506C19.3508 19.2506 18.3844 18.2846 18.3844 17.0972C18.3844 15.9097 19.3509 14.9437 20.5388 14.9437C20.5736 14.9437 20.6082 14.9468 20.6429 14.9486V18.9328C20.6429 19.0382 20.6453 19.1431 20.649 19.2478C20.6123 19.2497 20.5755 19.2506 20.5388 19.2506ZM22.0492 18.9328V13.5233C22.4945 13.638 22.9592 13.6988 23.4349 13.6988H35.7317C36.207 13.6988 36.6709 13.6381 37.1158 13.5237V18.8297C37.1158 23.0095 33.762 26.435 29.6398 26.4656C29.6211 26.4658 29.6026 26.4658 29.584 26.4658C27.5805 26.4658 25.6968 25.6902 24.2745 24.2781C22.8394 22.8533 22.0492 20.955 22.0492 18.9328ZM29.583 32.201C28.5948 32.201 27.791 31.3976 27.791 30.41V27.6931C28.3748 27.8112 28.9745 27.8721 29.5838 27.872C29.6057 27.872 29.628 27.872 29.65 27.8718C30.2398 27.8674 30.816 27.804 31.374 27.6882V30.4099C31.374 31.3975 30.5705 32.201 29.583 32.201Z" fill="#3B9670"/>
<path d="M15.8753 44.6288C15.4869 44.6288 15.1721 44.9435 15.1721 45.3319V47.2969C15.1721 47.6853 15.4869 48 15.8753 48C16.2637 48 16.5784 47.6853 16.5784 47.2969V45.3319C16.5784 44.9435 16.2637 44.6288 15.8753 44.6288Z" fill="#3B9670"/>
<path d="M33.4478 17.5813C33.4505 17.5814 33.4534 17.5814 33.4561 17.5814C33.8406 17.5814 34.1545 17.2718 34.1589 16.8863C34.1634 16.498 33.8523 16.1796 33.4639 16.1752L33.456 16.1751C33.4533 16.175 33.4504 16.175 33.4477 16.175C33.0633 16.175 32.7532 16.4846 32.7488 16.8701C32.7443 17.2584 33.0594 17.5769 33.4478 17.5813Z" fill="#3B9670"/>
<path d="M25.7173 16.1751H25.7095C25.3211 16.1751 25.0102 16.4898 25.0102 16.8782C25.0102 17.2666 25.3288 17.5814 25.7173 17.5814C26.1057 17.5814 26.4204 17.2666 26.4204 16.8782C26.4204 16.4898 26.1056 16.1751 25.7173 16.1751Z" fill="#3B9670"/>
<path d="M11.4279 28.8693H2.53481C2.1464 28.8693 1.83168 29.184 1.83168 29.5724C1.83168 29.9608 2.1464 30.2756 2.53481 30.2756H11.4278C11.8162 30.2756 12.131 29.9608 12.131 29.5724C12.131 29.184 11.8162 28.8693 11.4279 28.8693Z" fill="#3B9670"/>
<path d="M11.4285 31.3382H6.36229C5.97388 31.3382 5.65916 31.6529 5.65916 32.0413C5.65916 32.4297 5.97388 32.7444 6.36229 32.7444H11.4285C11.8169 32.7444 12.1317 32.4297 12.1317 32.0413C12.1317 31.6529 11.8168 31.3382 11.4285 31.3382Z" fill="#3B9670"/>
<path d="M11.4285 33.8068H6.36229C5.97388 33.8068 5.65916 34.1216 5.65916 34.51C5.65916 34.8984 5.97388 35.2131 6.36229 35.2131H11.4285C11.8169 35.2131 12.1317 34.8984 12.1317 34.51C12.1317 34.1216 11.8168 33.8068 11.4285 33.8068Z" fill="#3B9670"/>
<path d="M10.4619 37.3857H8.21442C7.30983 37.3857 6.5738 38.1218 6.5738 39.0263V41.2739C6.5738 42.1785 7.30983 42.9145 8.21442 42.9145H10.4619C11.3665 42.9145 12.1025 42.1785 12.1025 41.2739V39.0263C12.1025 38.1218 11.3666 37.3857 10.4619 37.3857ZM10.6963 41.2739C10.6963 41.4032 10.5912 41.5083 10.4619 41.5083H8.21442C8.08514 41.5083 7.98005 41.4032 7.98005 41.2739V39.0263C7.98005 38.8971 8.08514 38.792 8.21442 38.792H10.4619C10.5912 38.792 10.6963 38.8971 10.6963 39.0263V41.2739Z" fill="#3B9670"/>
<path d="M2.34852 19.8995C3.50287 21.4958 5.16393 22.6473 7.28605 23.3221C7.39349 23.3562 7.50393 23.3733 7.61446 23.3733C7.72499 23.3733 7.83543 23.3562 7.94296 23.3221C10.065 22.6473 11.7261 21.4958 12.8803 19.8995C13.4445 19.1195 13.763 18.3926 13.9307 17.9204C14.0342 17.6293 14.0868 17.3235 14.0868 17.0116V15.3875C14.0868 14.9991 13.7721 14.6844 13.3836 14.6844C12.9952 14.6844 12.6805 14.9991 12.6805 15.3875V17.0116C12.6805 17.1624 12.6553 17.3097 12.6056 17.4494C12.4686 17.8353 12.2073 18.4306 11.7408 19.0757C10.7841 20.3986 9.39627 21.3655 7.61437 21.9505C5.83255 21.3654 4.44449 20.3985 3.48796 19.0758C3.32005 18.8434 3.16565 18.599 3.02915 18.3495C2.71452 17.7738 2.54812 17.1152 2.54812 16.4447V10.8542L7.61427 9.62041L12.6803 10.8542V12.2165C12.6803 12.6049 12.9951 12.9197 13.3835 12.9197C13.7719 12.9197 14.0866 12.6049 14.0866 12.2165V10.6031C14.0866 10.1002 13.7453 9.66597 13.2569 9.5471L7.87068 8.23535C7.70315 8.19475 7.52568 8.19475 7.35702 8.23553L1.97155 9.5471C1.48302 9.66597 1.14177 10.1001 1.14177 10.6031V16.4446C1.14177 17.3501 1.36771 18.242 1.79521 19.0241C1.96021 19.3251 2.14621 19.6196 2.34852 19.8995Z" fill="#3B9670"/>
<path d="M7.61473 17.8002C8.00313 17.8002 8.31785 17.4855 8.31785 17.0971V16.106H9.30888C9.69729 16.106 10.012 15.7913 10.012 15.4029C10.012 15.0145 9.69729 14.6998 9.30888 14.6998H8.31785V13.7087C8.31785 13.3203 8.00313 13.0056 7.61473 13.0056C7.22632 13.0056 6.9116 13.3203 6.9116 13.7087V14.6998H5.92057C5.53216 14.6998 5.21745 15.0145 5.21745 15.4029C5.21745 15.7913 5.53216 16.106 5.92057 16.106H6.9116V17.0971C6.9116 17.4855 7.22632 17.8002 7.61473 17.8002Z" fill="#3B9670"/>
<path d="M32.6862 20.9323C32.7002 20.5441 32.397 20.2183 32.0089 20.2042C31.6197 20.1913 31.2949 20.4934 31.2808 20.8816C31.2476 21.7999 30.5015 22.5194 29.5822 22.5194C28.6627 22.5194 27.9165 21.8 27.8835 20.8816C27.8696 20.4935 27.5434 20.1899 27.1555 20.2042C26.7674 20.2182 26.4641 20.5441 26.4781 20.9322C26.5386 22.6107 27.902 23.9256 29.5821 23.9256C31.2622 23.9256 32.6257 22.6109 32.6862 20.9323Z" fill="#3B9670"/>
</svg>
