<svg width="52" height="52" viewBox="0 0 52 52" fill="none" xmlns="http://www.w3.org/2000/svg">
<path d="M0.761719 4.09216H6.36086L8.22148 5.87163L5.96294 8.13018C4.58514 9.50818 4.58514 11.7504 5.96294 13.1283L7.06073 14.2261L5.94049 15.3463C5.78002 15.5069 5.69948 15.7306 5.72081 15.9566C5.74214 16.1827 5.8632 16.3873 6.05089 16.5149L7.92919 17.7917C8.42288 18.1275 8.99011 18.2916 9.55449 18.2916C10.2089 18.2916 10.8594 18.0707 11.3863 17.6404L11.841 18.0951C12.1708 18.4249 12.6092 18.6065 13.0757 18.6065C13.542 18.6065 13.9804 18.4249 14.3103 18.095L15.3426 17.0625C15.6724 16.7328 15.854 16.2944 15.854 15.828C15.854 15.3615 15.6724 14.9231 15.3426 14.5935L14.8983 14.1492L15.2367 13.8108L15.681 14.2551C16.0108 14.5848 16.4493 14.7664 16.9156 14.7664C17.382 14.7664 17.8205 14.5848 18.1502 14.2551L19.1827 13.2226C19.8634 12.5419 19.8634 11.4341 19.1827 10.7533L18.7384 10.309L19.0768 9.97059L19.5211 10.4149C19.8616 10.7553 20.3085 10.9253 20.7556 10.9253C21.2027 10.9253 21.6499 10.7552 21.9903 10.4149L23.0228 9.38245C23.7035 8.70177 23.7035 7.59413 23.0227 6.91316L22.5681 6.45856C23.3695 5.47727 23.4444 4.06768 22.7195 3.00148L21.4426 1.12308C21.315 0.935289 21.1104 0.814328 20.8843 0.793C20.6599 0.771977 20.4347 0.852211 20.274 1.01268L19.1538 2.13281L18.0561 1.03513C17.3885 0.367656 16.5011 0 15.557 0C14.6129 0 13.7255 0.367656 13.058 1.03513L9.29886 4.79416L7.19286 2.77997C7.05108 2.64438 6.86258 2.56872 6.66636 2.56872H0.761719C0.340945 2.56872 0 2.90966 0 3.33044C0 3.75121 0.340945 4.09216 0.761719 4.09216ZM14.2654 15.6706C14.3192 15.7244 14.3306 15.7859 14.3306 15.8279C14.3306 15.87 14.3193 15.9314 14.2654 15.9852L13.2329 17.0177C13.1461 17.1046 13.0048 17.1044 12.9181 17.0177L12.4738 16.5735L13.821 15.2262L14.2654 15.6706ZM18.1054 11.8304C18.1922 11.9171 18.1922 12.0583 18.1054 12.1451L17.073 13.1776C16.9862 13.2645 16.8451 13.2645 16.7583 13.1776L16.314 12.7333L17.6612 11.3861L18.1054 11.8304ZM21.9455 8.30497L20.9131 9.33745C20.8263 9.42409 20.685 9.42419 20.5983 9.33755L20.154 8.89322L21.5012 7.54599L21.9455 7.99023C22.0324 8.07696 22.0324 8.21834 21.9455 8.30497ZM20.7003 2.74077L21.4598 3.85785C21.8291 4.40121 21.76 5.13277 21.2954 5.59731C20.0543 6.83841 11.6439 15.2487 10.5251 16.3675C10.0608 16.8322 9.32912 16.9011 8.78566 16.5318L7.66868 15.7725C10.5682 12.8729 19.054 4.38709 20.7003 2.74077ZM14.1353 2.1124C14.515 1.73266 15.02 1.52344 15.557 1.52344C16.0941 1.52344 16.5991 1.73266 16.9788 2.1125L18.0765 3.21009L8.138 13.1487L7.04031 12.0509C6.25625 11.2669 6.25625 9.99131 7.04031 9.20735L14.1353 2.1124Z" fill="#3B9670"/>
<path d="M32.2758 6.58643H30.5061C30.0853 6.58643 29.7444 6.92737 29.7444 7.34814C29.7444 7.76892 30.0853 8.10986 30.5061 8.10986H32.2758C32.6966 8.10986 33.0375 7.76892 33.0375 7.34814C33.0375 6.92737 32.6966 6.58643 32.2758 6.58643Z" fill="#3B9670"/>
<path d="M32.2758 9.38403H30.5061C30.0853 9.38403 29.7444 9.72498 29.7444 10.1458C29.7444 10.5665 30.0853 10.9075 30.5061 10.9075H32.2758C32.6966 10.9075 33.0375 10.5665 33.0375 10.1458C33.0375 9.72498 32.6966 9.38403 32.2758 9.38403Z" fill="#3B9670"/>
<path d="M32.2758 12.1816H30.5061C30.0853 12.1816 29.7444 12.5226 29.7444 12.9434C29.7444 13.3641 30.0853 13.7051 30.5061 13.7051H32.2758C32.6966 13.7051 33.0375 13.3641 33.0375 12.9434C33.0375 12.5226 32.6966 12.1816 32.2758 12.1816Z" fill="#3B9670"/>
<path d="M32.2758 14.9792H30.5061C30.0853 14.9792 29.7444 15.3202 29.7444 15.741C29.7444 16.1617 30.0853 16.5027 30.5061 16.5027H32.2758C32.6966 16.5027 33.0375 16.1617 33.0375 15.741C33.0375 15.3202 32.6966 14.9792 32.2758 14.9792Z" fill="#3B9670"/>
<path d="M43.3692 11.8452C43.173 11.6316 42.8729 11.548 42.5945 11.6294C42.3163 11.7108 42.1083 11.943 42.0581 12.2285L41.6601 14.4895L39.7313 10.2747C39.6198 10.0312 39.3885 9.86388 39.1222 9.83453C38.856 9.80538 38.5937 9.91791 38.4318 10.1314L36.8768 12.1817H35.0256C34.6048 12.1817 34.2639 12.5227 34.2639 12.9435C34.2639 13.3642 34.6048 13.7052 35.0256 13.7052H37.255C37.4933 13.7052 37.7179 13.5936 37.8619 13.4037L38.8759 12.0668L41.2934 17.3493C41.4184 17.6227 41.6908 17.7941 41.9857 17.7941C42.0177 17.7941 42.0502 17.7921 42.0827 17.7879C42.4136 17.7454 42.6783 17.4929 42.7362 17.1643L43.2909 14.012L43.5806 14.3272C43.7481 14.5096 43.9939 14.5994 44.2394 14.5672C44.485 14.5355 44.6998 14.3863 44.8153 14.1672L45.5809 12.7154L45.6135 13.0236C45.6544 13.4109 45.9812 13.7051 46.3709 13.7051H47.9067C48.3275 13.7051 48.6685 13.3641 48.6685 12.9434C48.6685 12.5226 48.3275 12.1816 47.9067 12.1816H47.0563L46.8322 10.0656C46.7969 9.73215 46.5477 9.46098 46.2186 9.39771C45.889 9.33464 45.5573 9.49389 45.401 9.79045L43.9716 12.5009L43.3692 11.8452Z" fill="#3B9670"/>
<path d="M49.1806 27.9159H23.9813C23.5606 27.9159 23.2196 28.2569 23.2196 28.6776C23.2196 29.0984 23.5606 29.4394 23.9813 29.4394H49.1806C49.8952 29.4394 50.4766 30.0207 50.4766 30.7353V31.9462H1.52344V30.7353C1.52344 30.0207 2.10478 29.4394 2.81938 29.4394H20.9358C21.3566 29.4394 21.6975 29.0984 21.6975 28.6776C21.6975 28.2569 21.3566 27.9159 20.9358 27.9159H10.6981V26.9104C10.6981 25.7918 9.78809 24.8818 8.66948 24.8818H4.66334C3.54473 24.8818 2.63473 25.7918 2.63473 26.9104V27.9219C1.16584 28.0173 0 29.2427 0 30.7353V32.7079C0 33.1287 0.340945 33.4697 0.761719 33.4697H3.34852V34.2732C3.34852 35.688 4.49942 36.839 5.91419 36.839H10.3247C10.7455 36.839 11.0865 36.498 11.0865 36.0773C11.0865 35.6565 10.7455 35.3156 10.3247 35.3156H5.91409C5.33945 35.3156 4.87185 34.848 4.87185 34.2732V33.4697H47.1282V34.2732C47.1282 34.848 46.6606 35.3156 46.0858 35.3156C42.6387 35.3156 17.5619 35.3156 13.3702 35.3156C12.9494 35.3156 12.6085 35.6565 12.6085 36.0773C12.6085 36.498 12.9494 36.839 13.3702 36.839H18.9469L22.1464 38.8686L18.9021 40.0777C18.604 40.1888 18.4064 40.4734 18.4064 40.7914V43.0516H11.9875C10.9022 43.0516 10.0193 43.9345 10.0193 45.0198V47.1784C9.0285 47.5002 8.31025 48.4324 8.31025 49.5291C8.31025 50.8916 9.4186 51.9999 10.7811 51.9999C12.1435 51.9999 13.252 50.8916 13.252 49.5291C13.252 48.4324 12.5336 47.5002 11.5428 47.1784V45.0198C11.5428 44.7745 11.7422 44.575 11.9875 44.575H38.4518C38.6969 44.575 38.8965 44.7745 38.8965 45.0198V47.1784C37.9057 47.5002 37.1874 48.4324 37.1874 49.5291C37.1874 50.8916 38.2958 51.9999 39.6582 51.9999C41.0207 51.9999 42.1291 50.8916 42.1291 49.5291C42.1291 48.4324 41.4108 47.5002 40.4199 47.1784V45.0198C40.4199 43.9345 39.5371 43.0516 38.4518 43.0516H31.5844L25.5522 39.225L31.9544 36.8389H46.0857C47.5005 36.8389 48.6515 35.6879 48.6515 34.2731V33.4696H51.2383C51.6591 33.4696 52 33.1286 52 32.7078V30.7352C52 29.1807 50.7352 27.9159 49.1806 27.9159ZM4.15817 26.9104C4.15817 26.632 4.38476 26.4053 4.66334 26.4053H8.66948C8.94796 26.4053 9.17465 26.6319 9.17465 26.9104V27.9159H4.15817V26.9104ZM10.7811 50.4765C10.2586 50.4765 9.83369 50.0515 9.83369 49.5291C9.83369 49.0093 10.2545 48.586 10.7732 48.5819C10.7759 48.5819 10.7784 48.582 10.7811 48.582C10.7837 48.582 10.7863 48.5819 10.7889 48.5819C11.3078 48.5861 11.7285 49.0093 11.7285 49.5291C11.7285 50.0515 11.3036 50.4765 10.7811 50.4765ZM39.6582 50.4765C39.1358 50.4765 38.7109 50.0515 38.7109 49.5291C38.7109 49.0093 39.1316 48.586 39.6504 48.5819C39.653 48.5819 39.6556 48.582 39.6582 48.582C39.6609 48.582 39.6635 48.5819 39.666 48.5819C40.1849 48.5861 40.6057 49.0093 40.6057 49.5291C40.6058 50.0515 40.1808 50.4765 39.6582 50.4765ZM28.7406 43.0517H19.9299V41.3205L23.7609 39.8928L28.7406 43.0517ZM23.938 38.2009L21.7909 36.8389H27.5925L23.938 38.2009Z" fill="#3B9670"/>
<path d="M50.1367 3.83325H46.3822C45.9615 3.83325 45.6205 4.1742 45.6205 4.59497C45.6205 5.01574 45.9615 5.35669 46.3822 5.35669H50.1367C50.3241 5.35669 50.4765 5.50913 50.4765 5.69652V19.7025C50.4765 19.89 50.3241 20.0424 50.1367 20.0424H28.5614C28.3739 20.0424 28.2214 19.89 28.2214 19.7025V5.69652C28.2214 5.50913 28.3739 5.35669 28.5614 5.35669H43.3367C43.7575 5.35669 44.0984 5.01574 44.0984 4.59497C44.0984 4.1742 43.7575 3.83325 43.3367 3.83325H28.5614C27.534 3.83325 26.698 4.66901 26.698 5.69652V19.7025C26.698 20.7299 27.5339 21.5659 28.5614 21.5659H50.1368C51.1642 21.5659 52.0001 20.73 52.0001 19.7025V5.69652C52 4.66911 51.1642 3.83325 50.1367 3.83325Z" fill="#3B9670"/>
</svg>
