<svg width="48" height="48" viewBox="0 0 48 48" fill="none" xmlns="http://www.w3.org/2000/svg">
<path d="M12.4688 7.78125C11.9513 7.78125 11.5312 8.20125 11.5312 8.71875C11.5312 9.23625 11.9513 9.65625 12.4688 9.65625C12.9863 9.65625 13.4062 9.23625 13.4062 8.71875C13.4062 8.20125 12.9863 7.78125 12.4688 7.78125Z" fill="#3B9670"/>
<path d="M24 0C11.0644 0 0 11.0438 0 24C0 36.9385 11.0452 48 24 48C36.9356 48 48 36.9562 48 24C48 11.0615 36.9548 0 24 0ZM24 46.125C12.007 46.125 1.875 35.993 1.875 24C1.875 12.007 12.007 1.875 24 1.875C35.993 1.875 46.125 12.007 46.125 24C46.125 35.993 35.993 46.125 24 46.125Z" fill="#3B9670"/>
<path d="M24 4.03125C20.9939 4.03125 17.8139 4.725 15.2754 5.93466C14.8081 6.15741 14.6096 6.71691 14.8324 7.18425C15.055 7.65159 15.6143 7.85025 16.082 7.62731C18.3772 6.53353 21.2633 5.90625 24 5.90625C33.8078 5.90625 42.0938 14.1922 42.0938 24C42.0938 33.8078 33.8078 42.0938 24 42.0938C14.1922 42.0938 5.90625 33.8078 5.90625 24C5.90625 19.5201 7.54978 15.1045 10.4155 11.8855C10.7599 11.4988 10.7255 10.9062 10.3387 10.562C9.95194 10.2175 9.35953 10.2523 9.01519 10.6388C5.84775 14.1966 4.03125 19.0665 4.03125 24C4.03125 34.8495 13.1347 43.9688 24 43.9688C34.8495 43.9688 43.9688 34.8653 43.9688 24C43.9688 13.1505 34.8653 4.03125 24 4.03125Z" fill="#3B9670"/>
<path d="M35.25 19.3125H28.6875V12.75C28.6875 12.2323 28.2677 11.8125 27.75 11.8125H20.25C19.7323 11.8125 19.3125 12.2323 19.3125 12.75V19.3125H12.75C12.2323 19.3125 11.8125 19.7323 11.8125 20.25V27.75C11.8125 28.2677 12.2323 28.6875 12.75 28.6875H19.3125V35.25C19.3125 35.7677 19.7323 36.1875 20.25 36.1875H27.75C28.2677 36.1875 28.6875 35.7677 28.6875 35.25V28.6875H35.25C35.7677 28.6875 36.1875 28.2677 36.1875 27.75V20.25C36.1875 19.7323 35.7677 19.3125 35.25 19.3125ZM34.3125 26.8125H27.75C27.2323 26.8125 26.8125 27.2323 26.8125 27.75V34.3125H21.1875V27.75C21.1875 27.2323 20.7677 26.8125 20.25 26.8125H13.6875V21.1875H20.25C20.7677 21.1875 21.1875 20.7677 21.1875 20.25V13.6875H26.8125V20.25C26.8125 20.7677 27.2323 21.1875 27.75 21.1875H34.3125V26.8125Z" fill="#3B9670"/>
</svg>
