<svg width="48" height="52" viewBox="0 0 48 52" fill="none" xmlns="http://www.w3.org/2000/svg">
<path d="M23.8539 35.5169C25.6846 35.5169 27.174 34.0276 27.174 32.197C27.174 30.3664 25.6847 28.877 23.8539 28.877C22.0234 28.877 20.5341 30.3663 20.5341 32.197C20.5342 34.0276 22.0235 35.5169 23.8539 35.5169ZM23.8539 30.4005C24.8446 30.4005 25.6505 31.2064 25.6505 32.197C25.6505 33.1876 24.8446 33.9934 23.8539 33.9934C22.8634 33.9934 22.0576 33.1875 22.0576 32.197C22.0576 31.2065 22.8634 30.4005 23.8539 30.4005Z" fill="#3B9670"/>
<path d="M38.5815 11.0041C41.6154 11.0041 44.0837 8.53591 44.0837 5.50214C44.0838 2.46817 41.6154 0 38.5815 0C35.5478 0 33.0797 2.46817 33.0797 5.50204C33.0797 8.5358 35.5479 11.0041 38.5815 11.0041ZM38.5815 1.52354C40.7754 1.52354 42.5602 3.30829 42.5602 5.50204C42.5602 7.69578 40.7754 9.48044 38.5815 9.48044C36.3879 9.48044 34.6032 7.69578 34.6032 5.50204C34.6032 3.30829 36.3879 1.52354 38.5815 1.52354Z" fill="#3B9670"/>
<path d="M46.7334 19.4725C46.3127 19.4725 45.9717 19.8134 45.9717 20.2342V30.6575C45.9717 30.9288 45.751 31.1495 45.4798 31.1495H43.6213V17.7035C43.6213 17.2827 43.2803 16.9418 42.8595 16.9418C42.4388 16.9418 42.0978 17.2827 42.0978 17.7035V49.9845C42.0978 50.2557 41.8771 50.4764 41.6059 50.4764H39.8356C39.5643 50.4764 39.3437 50.2557 39.3437 49.9845V37.8661C39.3437 37.4455 39.0027 37.1044 38.5819 37.1044C38.1612 37.1044 37.8202 37.4455 37.8202 37.8661V49.9845C37.8202 50.2557 37.5995 50.4764 37.3283 50.4764H35.558C35.2868 50.4764 35.0662 50.2557 35.0662 49.9845V17.7035C35.0662 17.2827 34.7252 16.9418 34.3044 16.9418C33.8837 16.9418 33.5427 17.2827 33.5427 17.7035V31.1496H31.6841C31.4131 31.1496 31.1924 30.929 31.1923 30.6582V17.7011C31.1923 15.1993 33.2276 13.164 35.7294 13.164H41.4349C43.9367 13.164 45.972 15.1993 45.972 17.7011C45.972 18.1219 46.313 18.4628 46.7337 18.4628C47.1545 18.4628 47.4954 18.1219 47.4954 17.7011C47.4954 14.3593 44.7766 11.6405 41.4348 11.6405H35.7288C32.387 11.6405 29.6682 14.3593 29.6682 17.7011V30.6586C29.6687 31.7695 30.5728 32.6731 31.6836 32.6731H33.5422V49.9845C33.5422 51.0958 34.4463 51.9999 35.5576 51.9999H37.3279C37.8017 51.9999 38.2371 51.8345 38.5816 51.5598C38.9261 51.8345 39.3615 51.9999 39.8354 51.9999H41.6057C42.717 51.9999 43.6211 51.0959 43.6211 49.9845V32.673H45.4797C46.591 32.673 47.4951 31.7688 47.4951 30.6575V20.2342C47.4952 19.8134 47.1542 19.4725 46.7334 19.4725Z" fill="#3B9670"/>
<path d="M7.91931 15.6604C10.9532 15.6604 13.4215 13.1922 13.4215 10.1584C13.4215 7.12454 10.9532 4.65637 7.91931 4.65637C4.88555 4.65637 2.41748 7.12454 2.41748 10.1584C2.41758 13.1922 4.88555 15.6604 7.91931 15.6604ZM7.91931 6.17991C10.1132 6.17991 11.8979 7.96466 11.8979 10.1584C11.8979 12.3522 10.1132 14.1368 7.91931 14.1368C5.72567 14.1368 3.94102 12.3522 3.94102 10.1584C3.94112 7.96466 5.72577 6.17991 7.91931 6.17991Z" fill="#3B9670"/>
<path d="M10.4246 16.3756H5.41459C2.42896 16.3756 0 18.8046 0 21.7902V33.1677C0.000304687 34.1943 0.835756 35.0295 1.86255 35.0295H1.88561L1.35829 39.8287C1.33473 40.0439 1.40369 40.259 1.54811 40.4202C1.69264 40.5815 1.89891 40.6736 2.11544 40.6736H3.40173V50.1375C3.40173 51.1645 4.23738 52 5.26428 52H6.81879C7.23083 52 7.61077 51.8639 7.91963 51.6365C8.22848 51.8639 8.60832 52 9.02056 52H10.5751C11.6021 52 12.4376 51.1645 12.4376 50.1375V45.9313C12.4376 45.5105 12.0967 45.1695 11.6759 45.1695C11.2551 45.1695 10.9142 45.5105 10.9142 45.9313V50.1375C10.9142 50.3244 10.7622 50.4765 10.5752 50.4765H9.02066C8.83369 50.4765 8.68155 50.3244 8.68155 50.1375V42.0012C8.68155 41.5804 8.3406 41.2395 7.91983 41.2395C7.49906 41.2395 7.15811 41.5804 7.15811 42.0012V50.1375C7.15811 50.3244 7.00607 50.4765 6.8191 50.4765H5.26418C5.0772 50.4765 4.92516 50.3244 4.92516 50.1375V40.6736H10.9139V43.493C10.9139 43.9136 11.2548 44.2547 11.6756 44.2547C12.0964 44.2547 12.4373 43.9136 12.4373 43.493V40.6736H13.7235C13.94 40.6736 14.1463 40.5815 14.2907 40.4202C14.4353 40.259 14.5042 40.0439 14.4807 39.8287L13.9533 35.0295H13.9764C15.0034 35.0295 15.8389 34.1941 15.8389 33.167V21.7901C15.8389 18.8046 13.41 16.3756 10.4246 16.3756ZM14.3155 33.1669C14.3154 33.3538 14.1634 33.5058 13.9764 33.5058H13.786L12.3914 20.815C12.3454 20.397 11.969 20.0963 11.551 20.141C11.1329 20.1869 10.8311 20.5632 10.877 20.9814L12.8735 39.1499H2.96552L4.96203 20.9814C5.00794 20.5632 4.70619 20.1869 4.28806 20.141C3.86912 20.0962 3.49354 20.397 3.44763 20.815L2.05308 33.5058H1.86265C1.67578 33.5058 1.52374 33.3539 1.52364 33.1673V21.7901C1.52364 19.6446 3.26919 17.899 5.41469 17.899H10.4246C12.57 17.899 14.3155 19.6446 14.3155 21.7901V33.1669Z" fill="#3B9670"/>
<path d="M29.627 32.9833C29.0819 33.0005 28.576 33.2289 28.2028 33.6264L25.3619 36.6518H22.4212L19.5802 33.6263C18.8094 32.8059 17.5149 32.7652 16.6939 33.5357C15.8735 34.3064 15.8327 35.601 16.6031 36.4218L19.8969 39.9294V50.0092C19.8969 51.1069 20.7899 51.9998 21.8876 51.9998H25.8953C26.993 51.9998 27.8859 51.1069 27.8859 50.0092V45.829C27.8859 45.4083 27.5449 45.0673 27.1241 45.0673C26.7034 45.0673 26.3624 45.4083 26.3624 45.829V50.0092C26.3624 50.2668 26.1529 50.4763 25.8954 50.4763H24.6174V44.1228C24.6174 43.702 24.2764 43.3611 23.8557 43.3611C23.435 43.3611 23.0939 43.702 23.0939 44.1228V50.4763H21.8877C21.6301 50.4763 21.4205 50.2668 21.4205 50.0092V39.6277C21.4205 39.4341 21.3467 39.2476 21.2141 39.1063L17.7141 35.3791C17.5185 35.1707 17.5288 34.842 17.737 34.6464C17.9455 34.4508 18.2741 34.4613 18.4697 34.6695L21.5362 37.9351C21.6802 38.0885 21.8811 38.1754 22.0915 38.1754H25.6916C25.9019 38.1754 26.1029 38.0884 26.2469 37.9351L29.3134 34.6695C29.5091 34.4611 29.8378 34.4509 30.0459 34.6463C30.2543 34.842 30.2645 35.1707 30.069 35.379L26.5688 39.1062C26.436 39.2475 26.3623 39.434 26.3623 39.6276V43.2897C26.3623 43.7103 26.7033 44.0514 27.124 44.0514C27.5448 44.0514 27.8857 43.7103 27.8857 43.2897V39.9293L31.1796 36.4218C31.9502 35.6011 31.9093 34.3065 31.0887 33.5356C30.6914 33.1624 30.1727 32.9673 29.627 32.9833Z" fill="#3B9670"/>
</svg>
