<svg width="48" height="48" viewBox="0 0 48 48" fill="none" xmlns="http://www.w3.org/2000/svg">
<path d="M40.9706 7.02938C36.4375 2.49638 30.4106 0 24 0C17.5894 0 11.5625 2.49638 7.02938 7.02938C2.49628 11.5624 0 17.5894 0 24C0 30.4106 2.49638 36.4375 7.02938 40.9706C11.5624 45.5037 17.5894 48 24 48C30.4106 48 36.4375 45.5036 40.9706 40.9706C45.5037 36.4376 48 30.4106 48 24C48 17.5894 45.5036 11.5625 40.9706 7.02938ZM39.9099 39.9099C35.6602 44.1596 30.0099 46.5 24 46.5C17.9901 46.5 12.3398 44.1596 8.09006 39.9099C3.84037 35.6602 1.5 30.0099 1.5 24C1.5 17.9901 3.84037 12.3398 8.09006 8.09006C12.3398 3.84037 17.9901 1.5 24 1.5C30.0099 1.5 35.6602 3.84037 39.9099 8.09006C44.1596 12.3398 46.5 17.9901 46.5 24C46.5 30.0099 44.1596 35.6602 39.9099 39.9099Z" fill="#3B9670"/>
<path d="M4.5 24C4.5 13.2477 13.2477 4.5 24 4.5C27.8783 4.5 31.6243 5.63541 34.8333 7.7835C35.1774 8.01394 35.6433 7.92169 35.8737 7.57744C36.1042 7.23328 36.0119 6.76744 35.6677 6.537C32.211 4.22306 28.1764 3 24 3C18.3907 3 13.1171 5.18438 9.15075 9.15075C5.18438 13.1171 3 18.3907 3 24C3 29.175 4.89881 34.1467 8.34675 37.9995C8.49488 38.1651 8.7 38.2493 8.90588 38.2493C9.08391 38.2493 9.26269 38.1863 9.40575 38.0582C9.71438 37.7819 9.74072 37.3078 9.46444 36.9992C6.26316 33.4219 4.5 28.8053 4.5 24Z" fill="#3B9670"/>
<path d="M41.4631 12.3325C41.2327 11.9883 40.7668 11.896 40.4226 12.1265C40.0785 12.3569 39.9861 12.8228 40.2166 13.1669C42.3646 16.3758 43.5 20.1219 43.5 24C43.5 34.7523 34.7523 43.5 24 43.5C19.5391 43.5 15.1785 41.9551 11.7216 39.1499C11.4 38.8889 10.9277 38.938 10.6667 39.2597C10.4057 39.5814 10.4548 40.0537 10.7765 40.3147C14.4997 43.336 19.196 45 24 45C29.6093 45 34.8829 42.8156 38.8492 38.8493C42.8156 34.8829 45 29.6094 45 24C45 19.8237 43.7769 15.7891 41.4631 12.3325Z" fill="#3B9670"/>
<path d="M36.9992 9.46454C37.5035 9.91576 37.9897 10.3987 38.4443 10.8997C38.5923 11.0628 38.7958 11.1457 39 11.1457C39.1797 11.1457 39.3601 11.0814 39.5038 10.951C39.8104 10.6727 39.8335 10.1983 39.5551 9.89157C39.0658 9.35232 38.5424 8.83257 37.9995 8.34676C37.6909 8.07057 37.2167 8.09682 36.9405 8.40544C36.6644 8.71407 36.6905 9.18826 36.9992 9.46454Z" fill="#3B9670"/>
<path d="M24 9.75C24.4142 9.75 24.75 9.41419 24.75 9V6.75C24.75 6.33581 24.4142 6 24 6C23.5858 6 23.25 6.33581 23.25 6.75V9C23.25 9.41419 23.5858 9.75 24 9.75Z" fill="#3B9670"/>
<path d="M23.25 39V41.25C23.25 41.6642 23.5858 42 24 42C24.4142 42 24.75 41.6642 24.75 41.25V39C24.75 38.5858 24.4142 38.25 24 38.25C23.5858 38.25 23.25 38.5858 23.25 39Z" fill="#3B9670"/>
<path d="M9.75 24C9.75 23.5858 9.41419 23.25 9 23.25H6.75C6.33581 23.25 6 23.5858 6 24C6 24.4142 6.33581 24.75 6.75 24.75H9C9.41419 24.75 9.75 24.4142 9.75 24Z" fill="#3B9670"/>
<path d="M38.25 24C38.25 24.4142 38.5858 24.75 39 24.75H41.25C41.6642 24.75 42 24.4142 42 24C42 23.5858 41.6642 23.25 41.25 23.25H39C38.5858 23.25 38.25 23.5858 38.25 24Z" fill="#3B9670"/>
<path d="M17.1495 10.6347L16.0245 8.68611C15.8174 8.32733 15.3587 8.20461 15 8.41161C14.6413 8.61871 14.5184 9.07742 14.7255 9.43611L15.8505 11.3847C15.9894 11.6253 16.2415 11.7598 16.5007 11.7598C16.6279 11.7598 16.7569 11.7274 16.8751 11.6592C17.2337 11.4521 17.3566 10.9934 17.1495 10.6347Z" fill="#3B9670"/>
<path d="M32.1495 36.6154C31.9424 36.2567 31.4836 36.134 31.125 36.3409C30.7663 36.548 30.6434 37.0067 30.8505 37.3654L31.9755 39.314C32.1144 39.5545 32.3665 39.689 32.6257 39.689C32.753 39.689 32.882 39.6566 33.0001 39.5885C33.3588 39.3814 33.4817 38.9226 33.2746 38.564L32.1495 36.6154Z" fill="#3B9670"/>
<path d="M9.06179 33.3751C9.18901 33.3751 9.31801 33.3427 9.43613 33.2745L11.3847 32.1495C11.7434 31.9424 11.8663 31.4837 11.6592 31.125C11.4521 30.7663 10.9933 30.6436 10.6347 30.8505L8.68613 31.9755C8.32745 32.1826 8.20454 32.6413 8.41163 33C8.55048 33.2406 8.80257 33.3751 9.06179 33.3751Z" fill="#3B9670"/>
<path d="M36.991 17.2501C37.1182 17.2501 37.2472 17.2177 37.3653 17.1495L39.3139 16.0245C39.6726 15.8174 39.7955 15.3587 39.5884 15C39.3813 14.6413 38.9226 14.5186 38.5639 14.7255L36.6153 15.8505C36.2566 16.0576 36.1337 16.5163 36.3408 16.875C36.4798 17.1156 36.7319 17.2501 36.991 17.2501Z" fill="#3B9670"/>
<path d="M33 8.41157C32.6413 8.20439 32.1826 8.32729 31.9755 8.68607L30.8505 10.6347C30.6434 10.9934 30.7663 11.4521 31.125 11.6592C31.2431 11.7274 31.372 11.7598 31.4993 11.7598C31.7585 11.7598 32.0106 11.6252 32.1496 11.3847L33.2746 9.43607C33.4816 9.07739 33.3587 8.61867 33 8.41157Z" fill="#3B9670"/>
<path d="M16.875 36.3408C16.5163 36.1337 16.0576 36.2566 15.8505 36.6153L14.7255 38.5639C14.5184 38.9226 14.6413 39.3813 15 39.5884C15.1181 39.6567 15.247 39.689 15.3743 39.689C15.6335 39.689 15.8856 39.5545 16.0246 39.3139L17.1496 37.3653C17.3566 37.0066 17.2337 36.5479 16.875 36.3408Z" fill="#3B9670"/>
<path d="M36.6154 32.1495L38.564 33.2745C38.6821 33.3428 38.8111 33.3751 38.9384 33.3751C39.1976 33.3751 39.4497 33.2406 39.5886 33C39.7957 32.6413 39.6728 32.1826 39.3141 31.9755L37.3655 30.8505C37.0068 30.6433 36.5481 30.7663 36.341 31.125C36.1338 31.4837 36.2567 31.9424 36.6154 32.1495Z" fill="#3B9670"/>
<path d="M11.3846 15.8505L9.43601 14.7255C9.07732 14.5183 8.6186 14.6413 8.41151 15C8.20442 15.3587 8.32732 15.8174 8.68601 16.0245L10.6346 17.1495C10.7527 17.2178 10.8816 17.2501 11.0089 17.2501C11.2682 17.2501 11.5203 17.1156 11.6592 16.875C11.8662 16.5163 11.7433 16.0576 11.3846 15.8505Z" fill="#3B9670"/>
<path d="M29.2211 33.7923C29.3484 33.7923 29.4774 33.7598 29.5955 33.6917C29.9542 33.4846 30.0771 33.0259 29.87 32.6672L25.7094 25.4607C26.046 25.0673 26.25 24.5572 26.25 24C26.25 23.0223 25.6229 22.1886 24.75 21.879V12C24.75 11.5858 24.4142 11.25 24 11.25C23.5858 11.25 23.25 11.5858 23.25 12V21.879C22.3771 22.1886 21.75 23.0223 21.75 24C21.75 25.2407 22.7593 26.25 24 26.25C24.1403 26.25 24.2776 26.2364 24.4109 26.2118L28.571 33.4172C28.7099 33.6578 28.962 33.7923 29.2211 33.7923ZM23.25 24C23.25 23.5865 23.5865 23.25 24 23.25C24.4135 23.25 24.75 23.5865 24.75 24C24.75 24.4135 24.4135 24.75 24 24.75C23.5865 24.75 23.25 24.4135 23.25 24Z" fill="#3B9670"/>
</svg>
