<svg width="50" height="50" viewBox="0 0 50 50" fill="none" xmlns="http://www.w3.org/2000/svg">
<mask id="path-1-outside-1_631_110" maskUnits="userSpaceOnUse" x="0" y="0" width="50" height="50" fill="black">
<rect fill="white" width="50" height="50"/>
<path d="M8.42665 41.5732C8.79293 41.9392 9.38637 41.9392 9.75255 41.5732L15.7188 35.6069C16.0849 35.2408 16.0849 34.6472 15.7188 34.281C15.3527 33.9151 14.7591 33.915 14.393 34.281L8.42665 40.2472C8.06055 40.6134 8.06046 41.2071 8.42665 41.5732Z"/>
<path d="M40.2471 8.42684L34.2809 14.3931C33.9148 14.7592 33.9148 15.3528 34.2809 15.719C34.6472 16.0851 35.2405 16.085 35.6068 15.719L41.573 9.75274C41.9391 9.38665 41.9391 8.79303 41.573 8.42684C41.2068 8.06074 40.6133 8.06074 40.2471 8.42684Z"/>
<path d="M9.75252 8.42677C9.38643 8.06077 8.7928 8.06077 8.42661 8.42677C8.06052 8.79286 8.06052 9.38649 8.42661 9.75267L14.393 15.7189C14.7591 16.085 15.3527 16.0849 15.7188 15.7189C16.0849 15.3528 16.0849 14.7592 15.7188 14.393L9.75252 8.42677Z"/>
<path d="M41.573 41.5732C41.9391 41.2071 41.9391 40.6135 41.573 40.2473L35.6068 34.281C35.2406 33.915 34.6472 33.915 34.2809 34.281C33.9148 34.6471 33.9148 35.2408 34.2809 35.6069L40.2471 41.5732C40.6135 41.9394 41.2068 41.9393 41.573 41.5732Z"/>
<path d="M29.5148 38.3507L31.6673 43.5473C31.8638 44.0215 32.4095 44.2543 32.8922 44.0547C33.3706 43.8565 33.5977 43.308 33.3996 42.8297L31.2471 37.6332C31.0488 37.1548 30.5006 36.928 30.0222 37.1258C29.5439 37.324 29.3167 37.8724 29.5148 38.3507Z"/>
<path d="M19.9772 12.8743C20.4556 12.6761 20.6828 12.1277 20.4846 11.6494L18.3321 6.45279C18.1339 5.97448 17.5854 5.74742 17.1073 5.94542C16.6288 6.1436 16.4017 6.69204 16.5999 7.17035L18.7524 12.3669C18.9493 12.8422 19.4957 13.0735 19.9772 12.8743Z"/>
<path d="M11.6497 29.5152L6.45311 31.6677C5.9747 31.8659 5.74755 32.4143 5.94573 32.8926C6.1427 33.3679 6.68908 33.5992 7.17058 33.4L12.3671 31.2475C12.8455 31.0493 13.0727 30.5009 12.8745 30.0226C12.6764 29.5443 12.128 29.3172 11.6497 29.5152Z"/>
<path d="M43.5472 18.3325C44.0256 18.1343 44.2526 17.5859 44.0545 17.1075C43.8564 16.6291 43.308 16.4024 42.8296 16.6002L37.6331 18.7527C37.1546 18.9509 36.9276 19.4993 37.1257 19.9776C37.3222 20.4518 37.8679 20.6846 38.3506 20.485L43.5472 18.3325Z"/>
<path d="M43.5472 31.6675L38.3506 29.515C37.8722 29.3174 37.3239 29.5441 37.1257 30.0224C36.9276 30.5008 37.1547 31.0492 37.633 31.2474L42.8296 33.3999C43.3128 33.5996 43.8582 33.3664 44.0545 32.8925C44.2526 32.4142 44.0255 31.8657 43.5472 31.6675Z"/>
<path d="M5.94572 17.1075C5.74753 17.5859 5.97478 18.1343 6.4531 18.3325L11.6497 20.485C12.1317 20.6844 12.6778 20.4525 12.8745 19.9776C13.0727 19.4992 12.8454 18.9508 12.3671 18.7527L7.17056 16.6002C6.69244 16.4023 6.14391 16.6292 5.94572 17.1075Z"/>
<path d="M18.3321 43.5472L20.4846 38.3507C20.6828 37.8723 20.4555 37.3239 19.9772 37.1257C19.4989 36.928 18.9506 37.1549 18.7524 37.6331L16.5999 42.8297C16.4017 43.3081 16.6289 43.8564 17.1072 44.0546C17.5892 44.254 18.1353 44.0222 18.3321 43.5472Z"/>
<path d="M29.5148 11.6494C29.3167 12.1278 29.5439 12.6762 30.0222 12.8743C30.5054 13.0741 31.0508 12.8409 31.2471 12.367L33.3996 7.17041C33.5977 6.692 33.3705 6.14366 32.8922 5.94547C32.4138 5.74785 31.8656 5.97463 31.6673 6.45285L29.5148 11.6494Z"/>
<path d="M25.9375 48.0625V39.0625C25.9375 38.5448 25.5177 38.125 25 38.125C24.4823 38.125 24.0625 38.5448 24.0625 39.0625V48.0625C24.0625 48.5802 24.4823 49 25 49C25.5177 49 25.9375 48.5802 25.9375 48.0625Z"/>
<path d="M25.9375 10.9375V1.9375C25.9375 1.41981 25.5177 1 25 1C24.4823 1 24.0625 1.41981 24.0625 1.9375V10.9375C24.0625 11.4552 24.4823 11.875 25 11.875C25.5177 11.875 25.9375 11.4552 25.9375 10.9375Z"/>
<path d="M1 25C1 25.5177 1.41972 25.9375 1.9375 25.9375H10.9375C11.4553 25.9375 11.875 25.5177 11.875 25C11.875 24.4823 11.4553 24.0625 10.9375 24.0625H1.9375C1.41972 24.0625 1 24.4823 1 25Z"/>
<path d="M48.0625 24.0625H39.0625C38.5448 24.0625 38.125 24.4823 38.125 25C38.125 25.5177 38.5448 25.9375 39.0625 25.9375H48.0625C48.5802 25.9375 49 25.5177 49 25C49 24.4823 48.5802 24.0625 48.0625 24.0625Z"/>
<path d="M31 31.9375C31.5178 31.9375 31.9375 31.5178 31.9375 31C31.9375 30.4822 31.5178 30.0625 31 30.0625C30.4822 30.0625 30.0625 30.4822 30.0625 31C30.0625 31.5178 30.4822 31.9375 31 31.9375Z"/>
<path d="M25 34.375C25.8857 34.375 26.7627 34.2514 27.6063 34.0078C28.1038 33.8642 28.3905 33.3444 28.2468 32.8469C28.1032 32.3494 27.5833 32.0629 27.0859 32.2064C26.4115 32.4012 25.7097 32.5 25 32.5C20.8645 32.5 17.5 29.1355 17.5 25C17.5 20.8645 20.8645 17.5 25 17.5C29.1355 17.5 32.5 20.8645 32.5 25C32.5 25.7097 32.4012 26.4115 32.2064 27.0859C32.0628 27.5835 32.3494 28.1032 32.8469 28.2468C33.3446 28.3903 33.8642 28.1037 34.0078 27.6063C34.2514 26.7627 34.375 25.8857 34.375 25C34.375 19.8305 30.1695 15.625 25 15.625C19.8306 15.625 15.625 19.8305 15.625 25C15.625 30.1695 19.8306 34.375 25 34.375Z"/>
</mask>
<path d="M8.42665 41.5732C8.79293 41.9392 9.38637 41.9392 9.75255 41.5732L15.7188 35.6069C16.0849 35.2408 16.0849 34.6472 15.7188 34.281C15.3527 33.9151 14.7591 33.915 14.393 34.281L8.42665 40.2472C8.06055 40.6134 8.06046 41.2071 8.42665 41.5732Z" fill="#3B9670"/>
<path d="M40.2471 8.42684L34.2809 14.3931C33.9148 14.7592 33.9148 15.3528 34.2809 15.719C34.6472 16.0851 35.2405 16.085 35.6068 15.719L41.573 9.75274C41.9391 9.38665 41.9391 8.79303 41.573 8.42684C41.2068 8.06074 40.6133 8.06074 40.2471 8.42684Z" fill="#3B9670"/>
<path d="M9.75252 8.42677C9.38643 8.06077 8.7928 8.06077 8.42661 8.42677C8.06052 8.79286 8.06052 9.38649 8.42661 9.75267L14.393 15.7189C14.7591 16.085 15.3527 16.0849 15.7188 15.7189C16.0849 15.3528 16.0849 14.7592 15.7188 14.393L9.75252 8.42677Z" fill="#3B9670"/>
<path d="M41.573 41.5732C41.9391 41.2071 41.9391 40.6135 41.573 40.2473L35.6068 34.281C35.2406 33.915 34.6472 33.915 34.2809 34.281C33.9148 34.6471 33.9148 35.2408 34.2809 35.6069L40.2471 41.5732C40.6135 41.9394 41.2068 41.9393 41.573 41.5732Z" fill="#3B9670"/>
<path d="M29.5148 38.3507L31.6673 43.5473C31.8638 44.0215 32.4095 44.2543 32.8922 44.0547C33.3706 43.8565 33.5977 43.308 33.3996 42.8297L31.2471 37.6332C31.0488 37.1548 30.5006 36.928 30.0222 37.1258C29.5439 37.324 29.3167 37.8724 29.5148 38.3507Z" fill="#3B9670"/>
<path d="M19.9772 12.8743C20.4556 12.6761 20.6828 12.1277 20.4846 11.6494L18.3321 6.45279C18.1339 5.97448 17.5854 5.74742 17.1073 5.94542C16.6288 6.1436 16.4017 6.69204 16.5999 7.17035L18.7524 12.3669C18.9493 12.8422 19.4957 13.0735 19.9772 12.8743Z" fill="#3B9670"/>
<path d="M11.6497 29.5152L6.45311 31.6677C5.9747 31.8659 5.74755 32.4143 5.94573 32.8926C6.1427 33.3679 6.68908 33.5992 7.17058 33.4L12.3671 31.2475C12.8455 31.0493 13.0727 30.5009 12.8745 30.0226C12.6764 29.5443 12.128 29.3172 11.6497 29.5152Z" fill="#3B9670"/>
<path d="M43.5472 18.3325C44.0256 18.1343 44.2526 17.5859 44.0545 17.1075C43.8564 16.6291 43.308 16.4024 42.8296 16.6002L37.6331 18.7527C37.1546 18.9509 36.9276 19.4993 37.1257 19.9776C37.3222 20.4518 37.8679 20.6846 38.3506 20.485L43.5472 18.3325Z" fill="#3B9670"/>
<path d="M43.5472 31.6675L38.3506 29.515C37.8722 29.3174 37.3239 29.5441 37.1257 30.0224C36.9276 30.5008 37.1547 31.0492 37.633 31.2474L42.8296 33.3999C43.3128 33.5996 43.8582 33.3664 44.0545 32.8925C44.2526 32.4142 44.0255 31.8657 43.5472 31.6675Z" fill="#3B9670"/>
<path d="M5.94572 17.1075C5.74753 17.5859 5.97478 18.1343 6.4531 18.3325L11.6497 20.485C12.1317 20.6844 12.6778 20.4525 12.8745 19.9776C13.0727 19.4992 12.8454 18.9508 12.3671 18.7527L7.17056 16.6002C6.69244 16.4023 6.14391 16.6292 5.94572 17.1075Z" fill="#3B9670"/>
<path d="M18.3321 43.5472L20.4846 38.3507C20.6828 37.8723 20.4555 37.3239 19.9772 37.1257C19.4989 36.928 18.9506 37.1549 18.7524 37.6331L16.5999 42.8297C16.4017 43.3081 16.6289 43.8564 17.1072 44.0546C17.5892 44.254 18.1353 44.0222 18.3321 43.5472Z" fill="#3B9670"/>
<path d="M29.5148 11.6494C29.3167 12.1278 29.5439 12.6762 30.0222 12.8743C30.5054 13.0741 31.0508 12.8409 31.2471 12.367L33.3996 7.17041C33.5977 6.692 33.3705 6.14366 32.8922 5.94547C32.4138 5.74785 31.8656 5.97463 31.6673 6.45285L29.5148 11.6494Z" fill="#3B9670"/>
<path d="M25.9375 48.0625V39.0625C25.9375 38.5448 25.5177 38.125 25 38.125C24.4823 38.125 24.0625 38.5448 24.0625 39.0625V48.0625C24.0625 48.5802 24.4823 49 25 49C25.5177 49 25.9375 48.5802 25.9375 48.0625Z" fill="#3B9670"/>
<path d="M25.9375 10.9375V1.9375C25.9375 1.41981 25.5177 1 25 1C24.4823 1 24.0625 1.41981 24.0625 1.9375V10.9375C24.0625 11.4552 24.4823 11.875 25 11.875C25.5177 11.875 25.9375 11.4552 25.9375 10.9375Z" fill="#3B9670"/>
<path d="M1 25C1 25.5177 1.41972 25.9375 1.9375 25.9375H10.9375C11.4553 25.9375 11.875 25.5177 11.875 25C11.875 24.4823 11.4553 24.0625 10.9375 24.0625H1.9375C1.41972 24.0625 1 24.4823 1 25Z" fill="#3B9670"/>
<path d="M48.0625 24.0625H39.0625C38.5448 24.0625 38.125 24.4823 38.125 25C38.125 25.5177 38.5448 25.9375 39.0625 25.9375H48.0625C48.5802 25.9375 49 25.5177 49 25C49 24.4823 48.5802 24.0625 48.0625 24.0625Z" fill="#3B9670"/>
<path d="M31 31.9375C31.5178 31.9375 31.9375 31.5178 31.9375 31C31.9375 30.4822 31.5178 30.0625 31 30.0625C30.4822 30.0625 30.0625 30.4822 30.0625 31C30.0625 31.5178 30.4822 31.9375 31 31.9375Z" fill="#3B9670"/>
<path d="M25 34.375C25.8857 34.375 26.7627 34.2514 27.6063 34.0078C28.1038 33.8642 28.3905 33.3444 28.2468 32.8469C28.1032 32.3494 27.5833 32.0629 27.0859 32.2064C26.4115 32.4012 25.7097 32.5 25 32.5C20.8645 32.5 17.5 29.1355 17.5 25C17.5 20.8645 20.8645 17.5 25 17.5C29.1355 17.5 32.5 20.8645 32.5 25C32.5 25.7097 32.4012 26.4115 32.2064 27.0859C32.0628 27.5835 32.3494 28.1032 32.8469 28.2468C33.3446 28.3903 33.8642 28.1037 34.0078 27.6063C34.2514 26.7627 34.375 25.8857 34.375 25C34.375 19.8305 30.1695 15.625 25 15.625C19.8306 15.625 15.625 19.8305 15.625 25C15.625 30.1695 19.8306 34.375 25 34.375Z" fill="#3B9670"/>
<path d="M8.42665 41.5732C8.79293 41.9392 9.38637 41.9392 9.75255 41.5732L15.7188 35.6069C16.0849 35.2408 16.0849 34.6472 15.7188 34.281C15.3527 33.9151 14.7591 33.915 14.393 34.281L8.42665 40.2472C8.06055 40.6134 8.06046 41.2071 8.42665 41.5732Z" stroke="#3B9670" stroke-width="0.2" mask="url(#path-1-outside-1_631_110)"/>
<path d="M40.2471 8.42684L34.2809 14.3931C33.9148 14.7592 33.9148 15.3528 34.2809 15.719C34.6472 16.0851 35.2405 16.085 35.6068 15.719L41.573 9.75274C41.9391 9.38665 41.9391 8.79303 41.573 8.42684C41.2068 8.06074 40.6133 8.06074 40.2471 8.42684Z" stroke="#3B9670" stroke-width="0.2" mask="url(#path-1-outside-1_631_110)"/>
<path d="M9.75252 8.42677C9.38643 8.06077 8.7928 8.06077 8.42661 8.42677C8.06052 8.79286 8.06052 9.38649 8.42661 9.75267L14.393 15.7189C14.7591 16.085 15.3527 16.0849 15.7188 15.7189C16.0849 15.3528 16.0849 14.7592 15.7188 14.393L9.75252 8.42677Z" stroke="#3B9670" stroke-width="0.2" mask="url(#path-1-outside-1_631_110)"/>
<path d="M41.573 41.5732C41.9391 41.2071 41.9391 40.6135 41.573 40.2473L35.6068 34.281C35.2406 33.915 34.6472 33.915 34.2809 34.281C33.9148 34.6471 33.9148 35.2408 34.2809 35.6069L40.2471 41.5732C40.6135 41.9394 41.2068 41.9393 41.573 41.5732Z" stroke="#3B9670" stroke-width="0.2" mask="url(#path-1-outside-1_631_110)"/>
<path d="M29.5148 38.3507L31.6673 43.5473C31.8638 44.0215 32.4095 44.2543 32.8922 44.0547C33.3706 43.8565 33.5977 43.308 33.3996 42.8297L31.2471 37.6332C31.0488 37.1548 30.5006 36.928 30.0222 37.1258C29.5439 37.324 29.3167 37.8724 29.5148 38.3507Z" stroke="#3B9670" stroke-width="0.2" mask="url(#path-1-outside-1_631_110)"/>
<path d="M19.9772 12.8743C20.4556 12.6761 20.6828 12.1277 20.4846 11.6494L18.3321 6.45279C18.1339 5.97448 17.5854 5.74742 17.1073 5.94542C16.6288 6.1436 16.4017 6.69204 16.5999 7.17035L18.7524 12.3669C18.9493 12.8422 19.4957 13.0735 19.9772 12.8743Z" stroke="#3B9670" stroke-width="0.2" mask="url(#path-1-outside-1_631_110)"/>
<path d="M11.6497 29.5152L6.45311 31.6677C5.9747 31.8659 5.74755 32.4143 5.94573 32.8926C6.1427 33.3679 6.68908 33.5992 7.17058 33.4L12.3671 31.2475C12.8455 31.0493 13.0727 30.5009 12.8745 30.0226C12.6764 29.5443 12.128 29.3172 11.6497 29.5152Z" stroke="#3B9670" stroke-width="0.2" mask="url(#path-1-outside-1_631_110)"/>
<path d="M43.5472 18.3325C44.0256 18.1343 44.2526 17.5859 44.0545 17.1075C43.8564 16.6291 43.308 16.4024 42.8296 16.6002L37.6331 18.7527C37.1546 18.9509 36.9276 19.4993 37.1257 19.9776C37.3222 20.4518 37.8679 20.6846 38.3506 20.485L43.5472 18.3325Z" stroke="#3B9670" stroke-width="0.2" mask="url(#path-1-outside-1_631_110)"/>
<path d="M43.5472 31.6675L38.3506 29.515C37.8722 29.3174 37.3239 29.5441 37.1257 30.0224C36.9276 30.5008 37.1547 31.0492 37.633 31.2474L42.8296 33.3999C43.3128 33.5996 43.8582 33.3664 44.0545 32.8925C44.2526 32.4142 44.0255 31.8657 43.5472 31.6675Z" stroke="#3B9670" stroke-width="0.2" mask="url(#path-1-outside-1_631_110)"/>
<path d="M5.94572 17.1075C5.74753 17.5859 5.97478 18.1343 6.4531 18.3325L11.6497 20.485C12.1317 20.6844 12.6778 20.4525 12.8745 19.9776C13.0727 19.4992 12.8454 18.9508 12.3671 18.7527L7.17056 16.6002C6.69244 16.4023 6.14391 16.6292 5.94572 17.1075Z" stroke="#3B9670" stroke-width="0.2" mask="url(#path-1-outside-1_631_110)"/>
<path d="M18.3321 43.5472L20.4846 38.3507C20.6828 37.8723 20.4555 37.3239 19.9772 37.1257C19.4989 36.928 18.9506 37.1549 18.7524 37.6331L16.5999 42.8297C16.4017 43.3081 16.6289 43.8564 17.1072 44.0546C17.5892 44.254 18.1353 44.0222 18.3321 43.5472Z" stroke="#3B9670" stroke-width="0.2" mask="url(#path-1-outside-1_631_110)"/>
<path d="M29.5148 11.6494C29.3167 12.1278 29.5439 12.6762 30.0222 12.8743C30.5054 13.0741 31.0508 12.8409 31.2471 12.367L33.3996 7.17041C33.5977 6.692 33.3705 6.14366 32.8922 5.94547C32.4138 5.74785 31.8656 5.97463 31.6673 6.45285L29.5148 11.6494Z" stroke="#3B9670" stroke-width="0.2" mask="url(#path-1-outside-1_631_110)"/>
<path d="M25.9375 48.0625V39.0625C25.9375 38.5448 25.5177 38.125 25 38.125C24.4823 38.125 24.0625 38.5448 24.0625 39.0625V48.0625C24.0625 48.5802 24.4823 49 25 49C25.5177 49 25.9375 48.5802 25.9375 48.0625Z" stroke="#3B9670" stroke-width="0.2" mask="url(#path-1-outside-1_631_110)"/>
<path d="M25.9375 10.9375V1.9375C25.9375 1.41981 25.5177 1 25 1C24.4823 1 24.0625 1.41981 24.0625 1.9375V10.9375C24.0625 11.4552 24.4823 11.875 25 11.875C25.5177 11.875 25.9375 11.4552 25.9375 10.9375Z" stroke="#3B9670" stroke-width="0.2" mask="url(#path-1-outside-1_631_110)"/>
<path d="M1 25C1 25.5177 1.41972 25.9375 1.9375 25.9375H10.9375C11.4553 25.9375 11.875 25.5177 11.875 25C11.875 24.4823 11.4553 24.0625 10.9375 24.0625H1.9375C1.41972 24.0625 1 24.4823 1 25Z" stroke="#3B9670" stroke-width="0.2" mask="url(#path-1-outside-1_631_110)"/>
<path d="M48.0625 24.0625H39.0625C38.5448 24.0625 38.125 24.4823 38.125 25C38.125 25.5177 38.5448 25.9375 39.0625 25.9375H48.0625C48.5802 25.9375 49 25.5177 49 25C49 24.4823 48.5802 24.0625 48.0625 24.0625Z" stroke="#3B9670" stroke-width="0.2" mask="url(#path-1-outside-1_631_110)"/>
<path d="M31 31.9375C31.5178 31.9375 31.9375 31.5178 31.9375 31C31.9375 30.4822 31.5178 30.0625 31 30.0625C30.4822 30.0625 30.0625 30.4822 30.0625 31C30.0625 31.5178 30.4822 31.9375 31 31.9375Z" stroke="#3B9670" stroke-width="0.2" mask="url(#path-1-outside-1_631_110)"/>
<path d="M25 34.375C25.8857 34.375 26.7627 34.2514 27.6063 34.0078C28.1038 33.8642 28.3905 33.3444 28.2468 32.8469C28.1032 32.3494 27.5833 32.0629 27.0859 32.2064C26.4115 32.4012 25.7097 32.5 25 32.5C20.8645 32.5 17.5 29.1355 17.5 25C17.5 20.8645 20.8645 17.5 25 17.5C29.1355 17.5 32.5 20.8645 32.5 25C32.5 25.7097 32.4012 26.4115 32.2064 27.0859C32.0628 27.5835 32.3494 28.1032 32.8469 28.2468C33.3446 28.3903 33.8642 28.1037 34.0078 27.6063C34.2514 26.7627 34.375 25.8857 34.375 25C34.375 19.8305 30.1695 15.625 25 15.625C19.8306 15.625 15.625 19.8305 15.625 25C15.625 30.1695 19.8306 34.375 25 34.375Z" stroke="#3B9670" stroke-width="0.2" mask="url(#path-1-outside-1_631_110)"/>
</svg>
