<svg width="231" height="109" viewBox="0 0 231 109" fill="none" xmlns="http://www.w3.org/2000/svg">
<path d="M115.141 47L121.07 31.9648H123.379L129.309 47H126.859L125.441 43.2383H118.574L117.133 47H115.141ZM119.266 41.5039H124.75L121.996 34.3203L119.266 41.5039ZM132.062 47V31.9648H134.371V45.2656H142.469V47H132.062ZM146.594 47V31.9648H151.48C153.223 31.9648 154.465 32.1211 155.207 32.4336C156.723 33.0898 157.48 34.3555 157.48 36.2305C157.48 37.8086 156.867 39.0469 155.641 39.9453C154.422 40.8438 152.738 41.293 150.59 41.293H148.902V47H146.594ZM148.902 39.5586H150.344C153.469 39.5586 155.031 38.4648 155.031 36.2773C155.031 35.3555 154.734 34.6953 154.141 34.2969C153.555 33.8984 152.574 33.6992 151.199 33.6992H148.902V39.5586ZM160.117 47V31.9648H162.426V38.5391H168.789V31.9648H171.109V47H168.789V40.2734H162.426V47H160.117ZM172.984 47L178.914 31.9648H181.223L187.152 47H184.703L183.285 43.2383H176.418L174.977 47H172.984ZM177.109 41.5039H182.594L179.84 34.3203L177.109 41.5039ZM116.734 71V55.9648H119.043V62.5391H125.406V55.9648H127.727V71H125.406V64.2734H119.043V71H116.734ZM130.188 63.4766C130.188 61.0781 130.773 59.168 131.945 57.7461C133.125 56.3164 134.707 55.6016 136.691 55.6016C138.676 55.6016 140.254 56.3164 141.426 57.7461C142.605 59.168 143.195 61.0781 143.195 63.4766C143.195 65.8828 142.605 67.8008 141.426 69.2305C140.254 70.6523 138.676 71.3633 136.691 71.3633C134.707 71.3633 133.125 70.6523 131.945 69.2305C130.773 67.8008 130.188 65.8828 130.188 63.4766ZM132.648 63.4766C132.648 65.4453 132.996 66.9648 133.691 68.0352C134.395 69.0977 135.395 69.6289 136.691 69.6289C137.988 69.6289 138.988 69.0977 139.691 68.0352C140.395 66.9648 140.746 65.4453 140.746 63.4766C140.746 61.5156 140.395 60.0039 139.691 58.9414C138.988 57.8711 137.988 57.3359 136.691 57.3359C135.395 57.3359 134.395 57.8711 133.691 58.9414C132.996 60.0039 132.648 61.5156 132.648 63.4766ZM155.758 56.3164V58.3203C154.062 57.6641 152.555 57.3359 151.234 57.3359C149.148 57.3359 148.105 58.0391 148.105 59.4453C148.105 60.0156 148.301 60.4766 148.691 60.8281C149.082 61.1719 149.805 61.5273 150.859 61.8945L152.336 62.4102L153.742 62.8906C155.922 63.6562 157.012 64.9531 157.012 66.7812C157.012 68.1719 156.453 69.2852 155.336 70.1211C154.227 70.9492 152.738 71.3633 150.871 71.3633C149.574 71.3633 147.898 71.0859 145.844 70.5312V68.2461C147.891 69.168 149.59 69.6289 150.941 69.6289C152.082 69.6289 152.992 69.4062 153.672 68.9609C154.352 68.5078 154.691 67.9023 154.691 67.1445C154.691 66.5664 154.488 66.1094 154.082 65.7734C153.684 65.4375 152.855 65.0391 151.598 64.5781L150.051 64.0156C148.512 63.4453 147.441 62.8594 146.84 62.2578C146.246 61.6562 145.949 60.8555 145.949 59.8555C145.949 58.5039 146.406 57.457 147.32 56.7148C148.242 55.9727 149.535 55.6016 151.199 55.6016C152.551 55.6016 154.07 55.8398 155.758 56.3164ZM161.055 71V55.9648H165.941C167.684 55.9648 168.926 56.1211 169.668 56.4336C171.184 57.0898 171.941 58.3555 171.941 60.2305C171.941 61.8086 171.328 63.0469 170.102 63.9453C168.883 64.8438 167.199 65.293 165.051 65.293H163.363V71H161.055ZM163.363 63.5586H164.805C167.93 63.5586 169.492 62.4648 169.492 60.2773C169.492 59.3555 169.195 58.6953 168.602 58.2969C168.016 57.8984 167.035 57.6992 165.66 57.6992H163.363V63.5586ZM174.871 71V69.2656H178.914V57.6992H174.871V55.9648H185.277V57.6992H181.234V69.2656H185.277V71H174.871ZM193.375 71V57.6992H187.598V55.9648H201.473V57.6992H195.695V71H193.375ZM201.906 71L207.836 55.9648H210.145L216.074 71H213.625L212.207 67.2383H205.34L203.898 71H201.906ZM206.031 65.5039H211.516L208.762 58.3203L206.031 65.5039ZM218.828 71V55.9648H221.137V69.2656H229.234V71H218.828Z" fill="white"/>
<path d="M82.579 0H82.308C71.5244 0 61.9875 5.72387 56.5018 14.1701C51.016 5.72387 41.4792 0 30.6956 0H30.4246C22.3318 0.0773606 14.5964 3.3553 8.8995 9.12148C3.20255 14.8877 0.00439321 22.6761 0 30.7943C0 40.8755 4.40161 55.1797 12.9844 66.95C29.3368 89.3779 56.5018 109 56.5018 109C56.5018 109 83.6667 89.3815 100.016 66.95C108.602 55.1797 113 40.8755 113 30.7943C112.996 22.6767 109.798 14.8888 104.102 9.12275C98.4056 3.35667 90.6711 0.0783097 82.579 0ZM78.7014 68.6755C77.4733 68.6709 76.2753 68.2938 75.2647 67.5938C74.254 66.8938 73.4781 65.9036 73.0386 64.7533H66.5915C66.167 64.7506 65.7539 64.6151 65.4099 64.3655C65.0658 64.116 64.8081 63.7649 64.6726 63.3613L62.6922 57.3764L56.4259 79.3403C56.3039 79.7631 56.0484 80.1348 55.6978 80.3995C55.3472 80.6642 54.9205 80.8077 54.4817 80.8084H54.3552C53.8973 80.7862 53.4609 80.6071 53.1189 80.3009C52.7769 79.9948 52.5499 79.5802 52.476 79.1264L46.0182 40.165L41.2985 63.2199C41.1903 63.6579 40.939 64.0469 40.5846 64.3248C40.2302 64.6027 39.7933 64.7536 39.3435 64.7533H30.262C29.9897 64.7649 29.718 64.7211 29.4631 64.6245C29.2082 64.528 28.9753 64.3807 28.7786 64.1916C28.5819 64.0024 28.4254 63.7754 28.3185 63.524C28.2116 63.2726 28.1564 63.0021 28.1564 62.7287C28.1564 62.4554 28.2116 62.1849 28.3185 61.9335C28.4254 61.6821 28.5819 61.455 28.7786 61.2659C28.9753 61.0768 29.2082 60.9295 29.4631 60.833C29.718 60.7364 29.9897 60.6926 30.262 60.7042H37.7534L44.4389 29.7068C44.5487 29.2486 44.8137 28.8427 45.1887 28.5588C45.5637 28.2748 46.0254 28.1303 46.4949 28.15C46.9643 28.1697 47.4124 28.3523 47.7625 28.6667C48.1125 28.9811 48.3429 29.4077 48.4141 29.8736L55.0093 69.618L60.6251 49.9669C60.7421 49.5531 60.9893 49.1882 61.3299 48.9269C61.6706 48.6656 62.0864 48.5218 62.5152 48.5169H62.5549C62.9796 48.5171 63.3935 48.6517 63.7374 48.9017C64.0813 49.1516 64.3378 49.5042 64.4702 49.9089L68.0515 60.7151H72.959C73.308 59.6517 73.943 58.7057 74.794 57.9816C75.6451 57.2574 76.679 56.7831 77.7818 56.6112C78.8846 56.4392 80.0133 56.5762 81.0433 57.0071C82.0733 57.438 82.9647 58.1459 83.6189 59.0528C84.2732 59.9598 84.6649 61.0304 84.7509 62.1465C84.8369 63.2626 84.6137 64.3809 84.1061 65.3779C83.5985 66.3749 82.8262 67.2118 81.8744 67.7962C80.9226 68.3807 79.8282 68.69 78.7122 68.69L78.7014 68.6755Z" fill="#6375FF"/>
</svg>
