<svg width="14" height="22" fill="none" xmlns="http://www.w3.org/2000/svg"><path d="M7 19.976a.748.748 0 100-1.496.748.748 0 000 1.496z" fill="#fff"/><path d="M10.905 0H2.274A2.276 2.276 0 000 2.274v17.452A2.276 2.276 0 002.274 22h8.63a2.276 2.276 0 002.274-2.274V2.274A2.276 2.276 0 0010.905 0zM1.467 4.45h10.245V16.66H1.467V4.45zm.807-2.983h8.63c.446 0 .808.362.808.807v.709H1.467v-.71c0-.444.362-.806.807-.806zm8.63 19.066h-8.63a.808.808 0 01-.807-.807v-1.598h10.245v1.598a.808.808 0 01-.807.807z" fill="#fff"/></svg>